<svg id="visual" viewBox="0 0 750 250" width="750" height="250" xmlns="http://www.w3.org/2000/svg" xmlns:xlink="http://www.w3.org/1999/xlink" version="1.1"><path d="M0 249L33 249L33 223L65 223L65 228L98 228L98 233L130 233L130 229L163 229L163 219L196 219L196 226L228 226L228 239L261 239L261 217L293 217L293 241L326 241L326 242L359 242L359 220L391 220L391 215L424 215L424 216L457 216L457 239L489 239L489 218L522 218L522 219L554 219L554 237L587 237L587 230L620 230L620 242L652 242L652 223L685 223L685 211L717 211L717 245L750 245L750 226L750 0L750 0L717 0L717 0L685 0L685 0L652 0L652 0L620 0L620 0L587 0L587 0L554 0L554 0L522 0L522 0L489 0L489 0L457 0L457 0L424 0L424 0L391 0L391 0L359 0L359 0L326 0L326 0L293 0L293 0L261 0L261 0L228 0L228 0L196 0L196 0L163 0L163 0L130 0L130 0L98 0L98 0L65 0L65 0L33 0L33 0L0 0Z" fill="#282828"></path><path d="M0 212L33 212L33 225L65 225L65 214L98 214L98 216L130 216L130 216L163 216L163 217L196 217L196 228L228 228L228 204L261 204L261 210L293 210L293 201L326 201L326 194L359 194L359 200L391 200L391 215L424 215L424 204L457 204L457 196L489 196L489 212L522 212L522 200L554 200L554 215L587 215L587 221L620 221L620 223L652 223L652 217L685 217L685 202L717 202L717 224L750 224L750 214L750 0L750 0L717 0L717 0L685 0L685 0L652 0L652 0L620 0L620 0L587 0L587 0L554 0L554 0L522 0L522 0L489 0L489 0L457 0L457 0L424 0L424 0L391 0L391 0L359 0L359 0L326 0L326 0L293 0L293 0L261 0L261 0L228 0L228 0L196 0L196 0L163 0L163 0L130 0L130 0L98 0L98 0L65 0L65 0L33 0L33 0L0 0Z" fill="#2c272f"></path><path d="M0 204L33 204L33 180L65 180L65 177L98 177L98 182L130 182L130 200L163 200L163 175L196 175L196 202L228 202L228 179L261 179L261 176L293 176L293 190L326 190L326 195L359 195L359 208L391 208L391 183L424 183L424 195L457 195L457 179L489 179L489 184L522 184L522 179L554 179L554 194L587 194L587 202L620 202L620 199L652 199L652 182L685 182L685 201L717 201L717 197L750 197L750 204L750 0L750 0L717 0L717 0L685 0L685 0L652 0L652 0L620 0L620 0L587 0L587 0L554 0L554 0L522 0L522 0L489 0L489 0L457 0L457 0L424 0L424 0L391 0L391 0L359 0L359 0L326 0L326 0L293 0L293 0L261 0L261 0L228 0L228 0L196 0L196 0L163 0L163 0L130 0L130 0L98 0L98 0L65 0L65 0L33 0L33 0L0 0Z" fill="#2f2536"></path><path d="M0 174L33 174L33 155L65 155L65 189L98 189L98 167L130 167L130 164L163 164L163 174L196 174L196 165L228 165L228 178L261 178L261 177L293 177L293 154L326 154L326 154L359 154L359 167L391 167L391 176L424 176L424 182L457 182L457 186L489 186L489 179L522 179L522 181L554 181L554 169L587 169L587 170L620 170L620 156L652 156L652 185L685 185L685 153L717 153L717 187L750 187L750 162L750 0L750 0L717 0L717 0L685 0L685 0L652 0L652 0L620 0L620 0L587 0L587 0L554 0L554 0L522 0L522 0L489 0L489 0L457 0L457 0L424 0L424 0L391 0L391 0L359 0L359 0L326 0L326 0L293 0L293 0L261 0L261 0L228 0L228 0L196 0L196 0L163 0L163 0L130 0L130 0L98 0L98 0L65 0L65 0L33 0L33 0L0 0Z" fill="#33233d"></path><path d="M0 165L33 165L33 157L65 157L65 140L98 140L98 157L130 157L130 153L163 153L163 150L196 150L196 139L228 139L228 161L261 161L261 158L293 158L293 150L326 150L326 157L359 157L359 153L391 153L391 160L424 160L424 148L457 148L457 164L489 164L489 137L522 137L522 146L554 146L554 165L587 165L587 151L620 151L620 172L652 172L652 144L685 144L685 154L717 154L717 151L750 151L750 148L750 0L750 0L717 0L717 0L685 0L685 0L652 0L652 0L620 0L620 0L587 0L587 0L554 0L554 0L522 0L522 0L489 0L489 0L457 0L457 0L424 0L424 0L391 0L391 0L359 0L359 0L326 0L326 0L293 0L293 0L261 0L261 0L228 0L228 0L196 0L196 0L163 0L163 0L130 0L130 0L98 0L98 0L65 0L65 0L33 0L33 0L0 0Z" fill="#362143"></path><path d="M0 115L33 115L33 126L65 126L65 135L98 135L98 115L130 115L130 120L163 120L163 136L196 136L196 133L228 133L228 130L261 130L261 147L293 147L293 147L326 147L326 133L359 133L359 139L391 139L391 122L424 122L424 119L457 119L457 130L489 130L489 137L522 137L522 149L554 149L554 116L587 116L587 123L620 123L620 134L652 134L652 124L685 124L685 144L717 144L717 146L750 146L750 138L750 0L750 0L717 0L717 0L685 0L685 0L652 0L652 0L620 0L620 0L587 0L587 0L554 0L554 0L522 0L522 0L489 0L489 0L457 0L457 0L424 0L424 0L391 0L391 0L359 0L359 0L326 0L326 0L293 0L293 0L261 0L261 0L228 0L228 0L196 0L196 0L163 0L163 0L130 0L130 0L98 0L98 0L65 0L65 0L33 0L33 0L0 0Z" fill="#391e4a"></path><path d="M0 132L33 132L33 99L65 99L65 96L98 96L98 109L130 109L130 101L163 101L163 119L196 119L196 104L228 104L228 110L261 110L261 102L293 102L293 133L326 133L326 112L359 112L359 123L391 123L391 101L424 101L424 115L457 115L457 121L489 121L489 128L522 128L522 130L554 130L554 119L587 119L587 126L620 126L620 109L652 109L652 96L685 96L685 119L717 119L717 106L750 106L750 114L750 0L750 0L717 0L717 0L685 0L685 0L652 0L652 0L620 0L620 0L587 0L587 0L554 0L554 0L522 0L522 0L489 0L489 0L457 0L457 0L424 0L424 0L391 0L391 0L359 0L359 0L326 0L326 0L293 0L293 0L261 0L261 0L228 0L228 0L196 0L196 0L163 0L163 0L130 0L130 0L98 0L98 0L65 0L65 0L33 0L33 0L0 0Z" fill="#3b1c51"></path><path d="M0 91L33 91L33 102L65 102L65 98L98 98L98 83L130 83L130 98L163 98L163 83L196 83L196 79L228 79L228 85L261 85L261 104L293 104L293 96L326 96L326 91L359 91L359 112L391 112L391 79L424 79L424 108L457 108L457 104L489 104L489 109L522 109L522 95L554 95L554 111L587 111L587 104L620 104L620 82L652 82L652 77L685 77L685 79L717 79L717 85L750 85L750 81L750 0L750 0L717 0L717 0L685 0L685 0L652 0L652 0L620 0L620 0L587 0L587 0L554 0L554 0L522 0L522 0L489 0L489 0L457 0L457 0L424 0L424 0L391 0L391 0L359 0L359 0L326 0L326 0L293 0L293 0L261 0L261 0L228 0L228 0L196 0L196 0L163 0L163 0L130 0L130 0L98 0L98 0L65 0L65 0L33 0L33 0L0 0Z" fill="#3e1858"></path><path d="M0 58L33 58L33 71L65 71L65 89L98 89L98 68L130 68L130 64L163 64L163 85L196 85L196 63L228 63L228 61L261 61L261 57L293 57L293 65L326 65L326 57L359 57L359 88L391 88L391 72L424 72L424 80L457 80L457 92L489 92L489 88L522 88L522 65L554 65L554 77L587 77L587 93L620 93L620 77L652 77L652 69L685 69L685 75L717 75L717 57L750 57L750 75L750 0L750 0L717 0L717 0L685 0L685 0L652 0L652 0L620 0L620 0L587 0L587 0L554 0L554 0L522 0L522 0L489 0L489 0L457 0L457 0L424 0L424 0L391 0L391 0L359 0L359 0L326 0L326 0L293 0L293 0L261 0L261 0L228 0L228 0L196 0L196 0L163 0L163 0L130 0L130 0L98 0L98 0L65 0L65 0L33 0L33 0L0 0Z" fill="#40145f"></path><path d="M0 58L33 58L33 44L65 44L65 61L98 61L98 61L130 61L130 41L163 41L163 74L196 74L196 54L228 54L228 41L261 41L261 62L293 62L293 65L326 65L326 57L359 57L359 71L391 71L391 63L424 63L424 53L457 53L457 66L489 66L489 58L522 58L522 55L554 55L554 68L587 68L587 59L620 59L620 55L652 55L652 51L685 51L685 51L717 51L717 38L750 38L750 55L750 0L750 0L717 0L717 0L685 0L685 0L652 0L652 0L620 0L620 0L587 0L587 0L554 0L554 0L522 0L522 0L489 0L489 0L457 0L457 0L424 0L424 0L391 0L391 0L359 0L359 0L326 0L326 0L293 0L293 0L261 0L261 0L228 0L228 0L196 0L196 0L163 0L163 0L130 0L130 0L98 0L98 0L65 0L65 0L33 0L33 0L0 0Z" fill="#420f67"></path><path d="M0 37L33 37L33 45L65 45L65 51L98 51L98 36L130 36L130 51L163 51L163 28L196 28L196 49L228 49L228 52L261 52L261 29L293 29L293 23L326 23L326 42L359 42L359 19L391 19L391 41L424 41L424 49L457 49L457 35L489 35L489 19L522 19L522 26L554 26L554 25L587 25L587 50L620 50L620 45L652 45L652 30L685 30L685 42L717 42L717 23L750 23L750 30L750 0L750 0L717 0L717 0L685 0L685 0L652 0L652 0L620 0L620 0L587 0L587 0L554 0L554 0L522 0L522 0L489 0L489 0L457 0L457 0L424 0L424 0L391 0L391 0L359 0L359 0L326 0L326 0L293 0L293 0L261 0L261 0L228 0L228 0L196 0L196 0L163 0L163 0L130 0L130 0L98 0L98 0L65 0L65 0L33 0L33 0L0 0Z" fill="#44086e"></path><path d="M0 28L33 28L33 29L65 29L65 1L98 1L98 15L130 15L130 17L163 17L163 18L196 18L196 8L228 8L228 25L261 25L261 13L293 13L293 4L326 4L326 24L359 24L359 28L391 28L391 26L424 26L424 26L457 26L457 23L489 23L489 17L522 17L522 23L554 23L554 7L587 7L587 4L620 4L620 11L652 11L652 11L685 11L685 23L717 23L717 5L750 5L750 36L750 0L750 0L717 0L717 0L685 0L685 0L652 0L652 0L620 0L620 0L587 0L587 0L554 0L554 0L522 0L522 0L489 0L489 0L457 0L457 0L424 0L424 0L391 0L391 0L359 0L359 0L326 0L326 0L293 0L293 0L261 0L261 0L228 0L228 0L196 0L196 0L163 0L163 0L130 0L130 0L98 0L98 0L65 0L65 0L33 0L33 0L0 0Z" fill="#460075"></path></svg>